<?xml version="1.0" encoding="UTF-8"?>
<!DOCTYPE svg PUBLIC "-//W3C//DTD SVG 1.1//EN" "http://www.w3.org/Graphics/SVG/1.1/DTD/svg11.dtd">
<svg xmlns="http://www.w3.org/2000/svg" version="1.1" width="118px" height="36px" style="shape-rendering:geometricPrecision; text-rendering:geometricPrecision; image-rendering:optimizeQuality; fill-rule:evenodd; clip-rule:evenodd" xmlns:xlink="http://www.w3.org/1999/xlink">
<g><path style="opacity:0.919" fill="#3e4594" d="M 10.5,2.5 C 27.6144,2.37846 33.1144,10.3785 27,26.5C 20.8025,32.1041 13.9692,32.9374 6.5,29C 0.87359,22.459 0.0402569,15.2923 4,7.5C 5.96514,5.44965 8.13181,3.78299 10.5,2.5 Z"/></g>
<g><path style="opacity:0.685" fill="#fdfefd" d="M 44.5,10.5 C 46.8333,10.5 49.1667,10.5 51.5,10.5C 51.7035,12.3904 51.0368,13.8904 49.5,15C 49.8333,15.1667 50.1667,15.3333 50.5,15.5C 52.8929,13.6369 55.5596,12.3035 58.5,11.5C 60.0004,11.4528 61.0004,12.1195 61.5,13.5C 58.5,16.8333 55.5,20.1667 52.5,23.5C 54.595,24.2294 56.4284,23.5628 58,21.5C 58.6667,22.1667 58.6667,22.8333 58,23.5C 55.3027,26.8705 51.8027,28.2038 47.5,27.5C 48.4002,23.4186 50.4002,19.9186 53.5,17C 52.8333,16.3333 52.1667,16.3333 51.5,17C 47.9506,20.0574 44.2839,22.8907 40.5,25.5C 39.0683,25.2668 38.5683,24.6001 39,23.5C 41.4626,20.0354 44.2959,16.8688 47.5,14C 43.8526,13.9528 40.3526,14.7861 37,16.5C 35.274,15.3521 35.4407,14.1855 37.5,13C 39.9269,12.0977 42.2603,11.2644 44.5,10.5 Z"/></g>
<g><path style="opacity:0.697" fill="#fdfefd" d="M 95.5,14.5 C 96.5,14.5 97.5,14.5 98.5,14.5C 98.5,15.5 98.5,16.5 98.5,17.5C 95.4331,17.8795 94.4331,16.8795 95.5,14.5 Z"/></g>
<g><path style="opacity:0.674" fill="#fdfefd" d="M 81.5,16.5 C 82.8333,16.5 84.1667,16.5 85.5,16.5C 85.0833,19.0792 85.75,21.2458 87.5,23C 84.4755,26.1984 80.8088,27.1984 76.5,26C 75.9415,25.2753 75.6082,24.4419 75.5,23.5C 77.5454,21.1276 79.5454,18.7943 81.5,16.5 Z M 80.5,20.5 C 81.7759,21.3864 81.7759,22.3864 80.5,23.5C 79.4376,22.5754 79.4376,21.5754 80.5,20.5 Z"/></g>
<g><path style="opacity:0.698" fill="#fdfefd" d="M 66.5,17.5 C 68.5,17.5 70.5,17.5 72.5,17.5C 72.822,19.7224 72.1554,21.5557 70.5,23C 72.0846,23.0848 73.4179,23.2514 74.5,23.5C 72.8816,25.316 70.8816,26.6493 68.5,27.5C 67.2011,26.91 66.3678,25.91 66,24.5C 63.1606,27.4086 60.9939,27.0753 59.5,23.5C 59.6082,22.5581 59.9415,21.7247 60.5,21C 62.7274,20.059 64.7274,18.8923 66.5,17.5 Z M 66.5,21.5 C 65.6851,22.8366 64.5185,23.8366 63,24.5C 63.033,22.5216 64.1996,21.5216 66.5,21.5 Z"/></g>
<g><path style="opacity:0.698" fill="#fdfefd" d="M 100.5,17.5 C 102.764,18.2186 105.097,18.552 107.5,18.5C 107.297,20.6382 106.297,22.3049 104.5,23.5C 105.587,24.105 106.754,23.7717 108,22.5C 108.667,23.1667 108.667,23.8333 108,24.5C 105.772,26.1134 103.272,26.78 100.5,26.5C 100.297,24.6096 100.963,23.1096 102.5,22C 102.167,21.8333 101.833,21.6667 101.5,21.5C 98.1906,24.9937 94.1906,26.4937 89.5,26C 87.8958,22.0729 89.2292,19.5729 93.5,18.5C 94.1667,18.8333 94.8333,19.1667 95.5,19.5C 94.6364,21.1965 93.3031,22.3632 91.5,23C 92,23.5 92.5,24 93,24.5C 96.1225,22.6952 98.6225,20.3619 100.5,17.5 Z"/></g>
<g><path style="opacity:1" fill="#e3e4ed" d="M 12.5,10.5 C 14.5,10.5 16.5,10.5 18.5,10.5C 18.7035,12.3904 18.0368,13.8904 16.5,15C 18.8072,14.3575 21.1405,13.3575 23.5,12C 24.7932,11.51 26.1266,11.3433 27.5,11.5C 27.6495,12.552 27.4828,13.552 27,14.5C 24.3167,17.0159 21.8167,19.6826 19.5,22.5C 19.8333,22.8333 20.1667,23.1667 20.5,23.5C 22.0778,22.3595 23.7445,21.8595 25.5,22C 22.7717,24.8645 19.4383,26.3645 15.5,26.5C 15.3433,25.1266 15.51,23.7932 16,22.5C 18.5,20 21,17.5 23.5,15C 22.8333,14.3333 22.1667,14.3333 21.5,15C 16.9894,18.1814 12.4894,21.3481 8,24.5C 6.74254,24.1501 6.40921,23.4835 7,22.5C 9.68325,19.9841 12.1833,17.3174 14.5,14.5C 11.1124,14.0525 7.77903,14.7192 4.5,16.5C 3.40632,15.132 3.73966,13.9653 5.5,13C 7.92693,12.0977 10.2603,11.2644 12.5,10.5 Z"/></g>
</svg>
